<svg xmlns="http://www.w3.org/2000/svg" viewBox="0 0 400 200">
  <rect width="400" height="200" fill="#f0ece4"/>
  <g stroke="#5c5850" stroke-width="1" opacity="0.5">
    <path d="M30,150 Q120,160 200,148 T370,155"/>
    <path d="M30,170 Q120,178 200,168 T370,172"/>
  </g>
  <g stroke="#e2ded6" stroke-width="1">
    <line x1="90" y1="60" x2="160" y2="40"/><line x1="90" y1="60" x2="160" y2="80"/><line x1="90" y1="60" x2="160" y2="120"/>
    <line x1="90" y1="100" x2="160" y2="40"/><line x1="90" y1="100" x2="160" y2="80"/><line x1="90" y1="100" x2="160" y2="120"/>
    <line x1="90" y1="140" x2="160" y2="40"/><line x1="90" y1="140" x2="160" y2="80"/><line x1="90" y1="140" x2="160" y2="120"/>
    <line x1="160" y1="40" x2="230" y2="80"/><line x1="160" y1="80" x2="230" y2="80"/><line x1="160" y1="120" x2="230" y2="80"/>
    <line x1="230" y1="80" x2="300" y2="80"/>
  </g>
  <g fill="#5c5850">
    <circle cx="90" cy="60" r="5"/><circle cx="90" cy="100" r="5"/><circle cx="90" cy="140" r="5"/>
    <circle cx="160" cy="40" r="5"/><circle cx="160" cy="80" r="5"/><circle cx="160" cy="120" r="5"/>
  </g>
  <circle cx="230" cy="80" r="6" fill="#1a7a6d"/>
  <circle cx="300" cy="80" r="7" fill="#1a7a6d"/>
  <text x="200" y="185" font-family="Georgia,serif" font-size="11" fill="#8a857c" text-anchor="middle">Computational geosciences</text>
</svg>
